<?xml version="1.0" encoding="UTF-8" standalone="no"?>
<svg
   xmlns:dc="http://purl.org/dc/elements/1.1/"
   xmlns:cc="http://creativecommons.org/ns#"
   xmlns:rdf="http://www.w3.org/1999/02/22-rdf-syntax-ns#"
   xmlns:svg="http://www.w3.org/2000/svg"
   xmlns="http://www.w3.org/2000/svg"
   viewBox="0 0 1080 1350"
   height="1350"
   width="1080"
   xml:space="preserve"
   id="svg2"
   version="1.1"><metadata
     id="metadata8"><rdf:RDF><cc:Work
         rdf:about=""><dc:format>image/svg+xml</dc:format><dc:type
           rdf:resource="http://purl.org/dc/dcmitype/StillImage" /></cc:Work></rdf:RDF></metadata><defs
     id="defs6"><clipPath
       id="clipPath14"
       clipPathUnits="userSpaceOnUse"><path
         id="path12"
         d="M 0,7.50003 H 810 V 1020 H 0 Z" /></clipPath><clipPath
       id="clipPath24"
       clipPathUnits="userSpaceOnUse"><path
         style="clip-rule:evenodd"
         id="path22"
         d="M 0,0 H 3375 V 4218.75 H 0 Z" /></clipPath><clipPath
       id="clipPath36"
       clipPathUnits="userSpaceOnUse"><path
         style="clip-rule:evenodd"
         id="path34"
         d="M 0,0 H 3375 V 4218.75 H 0 Z" /></clipPath><clipPath
       id="clipPath48"
       clipPathUnits="userSpaceOnUse"><path
         style="clip-rule:evenodd"
         id="path46"
         d="M 235.97162,912.71411 H 3139.0966 V 3059.5891 H 235.97162 Z" /></clipPath></defs><g
     clip-path="url(#clipPath14)"
     transform="matrix(1.3333333,0,0,-1.3333333,0,1360)"
     id="g10"><g
       transform="matrix(0.23999999,0,0,-0.23999999,0,1020)"
       id="g16"><g
         id="g18"><g
           clip-path="url(#clipPath24)"
           id="g20"><g
             transform="scale(3.125)"
             id="g26"><path
               id="path28"
               style="fill:#ffffff;fill-opacity:1;fill-rule:nonzero;stroke:none"
               d="M 0,0 H 1080 V 1350 H 0 Z" /></g></g></g><g
         id="g30"><g
           clip-path="url(#clipPath36)"
           id="g32"><g
             transform="scale(3.125)"
             id="g38"><path
               id="path40"
               style="fill:#ffffff;fill-opacity:1;fill-rule:nonzero;stroke:none"
               d="M 0,0 H 1080 V 1350 H 0 Z" /></g></g></g><g
         id="g42"><g
           clip-path="url(#clipPath48)"
           id="g44"><g
             transform="matrix(4.6448016,0,0,4.6448016,235.98473,912.71411)"
             id="g50"><path
               id="path52"
               style="fill:#70d0fe;fill-opacity:1;fill-rule:evenodd;stroke:none"
               d="m 266,57.646 c -31.44701,4.220001 -61.241,18.281002 -82.927,39.137997 l -7.573,7.283993 7.50301,-3.966 c 30.834,-16.298996 62.46,-24.068001 92.848,-22.808998 17.03699,0.706001 28.34101,2.722999 43.474,7.755996 39.78101,13.230004 70.42999,39.084002 92.068,77.666012 2.53399,4.51899 4.60699,8.485 4.60699,8.81399 0,0.329 1.07501,2.95 2.39001,5.823 9.99799,21.85899 14.88801,56.446 11.642,82.34399 -1.15201,9.189 -4.61401,24.44501 -6.92898,30.534 l -1.025,2.69501 -5.789,-2.707 c -5.23599,-2.448 -6.888,-2.707 -17.289,-2.71201 -11.22299,-0.006 -11.67999,0.082 -19,3.66699 -6.617,3.241 -19,12.84 -19,14.72901 0,0.38199 3.93799,3.793 8.75,7.578 4.81299,3.78601 12.79999,10.103 17.75,14.03799 29.17499,23.19602 52.07401,40.81901 53.53299,41.20099 1.979,0.517 4.61301,-3.54998 7.95999,-12.29199 3.413,-8.914 3.28699,-24.32599 -0.276,-33.84399 l -2.59,-6.918 4.32999,-9.082 c 4.857,-10.18701 9.87399,-24.69199 11.633,-33.63602 0.64401,-3.271 1.38501,-5.94699 1.64801,-5.94699 0.263,0 5.492,2.867 11.61999,6.371 12.793,7.314 17.206,9.629 18.357,9.629 0.93798,0 11.29599,-16.14801 11.264,-17.56201 -0.011,-0.51599 -2.824,-2.72 -6.25,-4.89801 -3.42599,-2.17801 -12.35598,-7.972 -19.845,-12.877 l -13.61599,-8.916 -0.68201,-9.12399 c -0.86801,-11.599 -3.353,-28.586 -5.176,-35.37301 -4.833,-17.996 -5.432,-19.77999 -11.022,-32.85099 -18.63501,-43.57 -55.17999,-78.588001 -100.388,-96.189007 -21.28699,-8.288002 -54.07001,-11.312 -82,-7.563999 m -18.80099,30.469998 c -41.46401,6.901001 -80.683,34.275998 -103.698,72.383998 -6.053,10.023 -12.472,24.439 -15.805,35.5 -3.08101,10.22001 -6.692,28.909 -6.694,34.639 -0.001,2.47999 -0.70401,4.975 -1.752,6.224 -0.962,1.14599 -7.825,5.96699 -15.25,10.71299 -24.228999,15.48601 -26.000002,16.691 -26.000002,17.68401 0,1.16699 8.948997,15.457 10.454002,16.69299 0.636002,0.52201 7.285004,-2.63501 16.957,-8.052 8.751,-4.90201 15.99,-8.797 16.087,-8.65601 0.096,0.14002 0.946,4.305 1.888,9.25501 4.64001,24.375 17.7,53.422 31.239,69.48001 10.431,12.371 15.801,17.70599 26.37501,26.202 25.02099,20.10501 57.858,32.86999 89.24998,34.69598 5.91299,0.34399 10.75,0.449 10.75,0.233 0,-0.216 -4.80801,-4.94198 -10.68399,-10.50201 -5.87598,-5.56003 -14.91699,-15.05899 -20.09,-21.10901 -9.25,-10.81601 -9.56599,-11.07001 -18.877,-15.17899 -22.515,-9.936 -45.86999,-29.755 -59.028,-50.09399 -5.39399,-8.33701 -10.835,-19.92401 -14.194,-30.22699 -2.87399,-8.81799 -6.127,-22.344 -6.127,-25.481 0,-0.743 6.637,-4.83901 14.75,-9.101 8.11301,-4.262 17.45,-9.17101 20.75001,-10.907 3.3,-1.73599 8.475,-4.533 11.5,-6.215 7.88699,-4.388 61.132,-32.775 76.49998,-40.78599 7.14999,-3.72701 13.56299,-7.222 14.25,-7.76601 0.82401,-0.65199 1.67599,-0.65199 2.5,0 0.68799,0.54401 7.10001,4.039 14.25,7.767 7.14999,3.72701 19.75,10.366 28,14.75301 8.25,4.38701 18.14999,9.652 22,11.69799 3.85001,2.04599 18.965,10.09301 33.58899,17.88001 14.62399,7.787 26.88602,14.15805 27.25,14.15805 2.08499,0 -1.16699,-41.381 -3.40701,-43.34799 -0.956,-0.84101 -58.038,-40.998 -67.93201,-47.791 -4.01572,-2.76186 -8.01572,-5.54619 -12,-8.353 -7.85101,-5.55299 -22.92401,-16.047 -34.11398,-23.752 l -9.61402,-6.619 -10.121,7.181 c -5.56699,3.95 -18.341,12.92399 -28.386,19.942 -10.04601,7.018 -21.19,14.849 -24.765,17.40201 -4.8425,3.44342 -9.70583,6.85708 -14.59,10.241 -17.134,11.854 -32.87399,22.86099 -41.84199,29.259 -17.25501,12.31 -19.75301,13.98599 -20.194,13.545 -0.803,-0.803 3.50799,-18.09101 6.641,-26.631 11.85201,-32.301 32.50299,-58.648 60.985,-77.805 9.61101,-6.464 23.23,-13.781999 32.34501,-17.378999 7.322,-2.889 6.46101,-3.375 -3.146,-1.776001 M 320.11499,213 c -3.85599,14.86301 -10.009,25.07899 -18.71301,31.067 -4.95401,3.409 -18.22901,8.933 -21.46601,8.933 -3.484,0 -2.03201,1.55901 2.60801,2.8 7.68798,2.05699 18.721,8.08 23.651,12.91399 5.73599,5.62299 9.99701,13.397 12.70999,23.186 1.12601,4.06101 2.228,7.56699 2.45099,7.78901 0.22299,0.22201 0.699,-1.30399 1.05899,-3.392 1.05801,-6.13401 4.70999,-15.46302 7.901,-20.181 6.39599,-9.45902 17.62701,-17.12299 29.58099,-20.18601 5.08402,-1.30299 6.845,-2.92999 3.17099,-2.92999 -3.31601,0 -18.001,-5.858 -22.57599,-9.006 -8.72601,-6.003 -13.93798,-14.46299 -17.38501,-28.216 l -1.824,-7.278 z m -100.966,39.75 c -2.92,10.96399 -9.57401,17.55899 -21.105,20.92099 l -5.457,1.591 6.15601,1.89002 c 3.386,1.039 8.091,3.34601 10.45599,5.12601 4.696,3.53298 9.455,11.70498 10.45399,17.95199 0.62601,3.91699 2.347,5.24201 2.347,1.80801 0,-4.45401 4.27601,-13.156 8.579,-17.45898 3.862,-3.86301 12.91099,-8.57901 16.459,-8.57901 0.52901,0 0.962,-0.45001 0.962,-1 0,-0.54999 -0.895,-1 -1.98899,-1 -3.963,0 -12.454,-4.02701 -16.19701,-7.681 -3.698,-3.612 -7.814,-12.227 -7.814,-16.35699 0,-3.569 -1.565,-2.038 -2.85099,2.78799 M 258,315.793 c 0,3.26001 -4.29601,8.457 -8.90201,10.771 l -4.40199,2.20999 3.155,0.69299 c 3.989,0.87601 8.78898,5.617 9.64799,9.53 0.83701,3.80801 2.082,3.84799 2.83301,0.091 0.68601,-3.42898 4.78699,-7.81399 8.94199,-9.561 l 2.95001,-1.23999 -4.384,-2.12201 c -4.26599,-2.065 -7.84,-6.401 -7.84,-9.51001 0,-0.845 -0.45001,-1.815 -1,-2.155 -0.54999,-0.34 -1,0.242 -1,1.293 m 92.96399,-0.392 c -3.04599,2.91501 -19.854,14.45001 -29.548,20.27899 -15.40702,9.26401 -35.29001,18.633 -48.41599,22.814 -3.02499,0.96301 -5.89001,2.10901 -6.366,2.54501 -1.198,1.09699 1.081,4.09201 10.42499,13.70099 8.009,8.23599 8.05701,8.26501 12.241,7.68701 9.33301,-1.29098 20.23999,-3.72198 28.94198,-6.45001 5.05301,-1.58499 9.33899,-2.73001 9.52301,-2.54501 0.90601,0.90499 -15.89898,15.1 -25.53399,21.56799 -2.193,1.47198 -2.07901,1.60599 6.224,7.25 4.652,3.16299 9.45999,5.75 10.68399,5.75 5.01599,0 18.63,-4.582 29.39898,-9.89401 6.30399,-3.10999 11.46201,-5.47602 11.46201,-5.25699 0,0.21799 -1.97101,3.15399 -4.379,6.52398 -4.267,5.97001 -12.625,14.48401 -17.57998,17.909 -2.94501,2.03501 -2.503,2.513 5.58401,6.04401 5.224,2.281 7.521,2.67401 15.616,2.67401 8.828,0 9.97101,-0.241 16.375,-3.45499 8.703,-4.36899 44.307,-33.169 54.29199,-43.918 l 2.40701,-2.591 -2.40701,-1.90399 c -1.32501,-1.04801 -9.83301,-7.802 -18.90799,-15.01001 -9.61118,-7.63312 -19.23151,-15.25446 -28.86099,-22.86402 -6.79901,-5.367 -12.874,-10.21301 -13.5,-10.76901 C 365.04599,322.29999 353.91901,314 353.23599,314 c -0.444,0 -1.466,0.63101 -2.272,1.401" /></g></g></g></g></g></svg>